<?xml version="1.0" encoding="UTF-8" standalone="no"?>
<!-- Created with Inkscape (http://www.inkscape.org/) -->

<svg
   version="1.1"
   id="svg1"
   width="284"
   height="285"
   viewBox="0 0 284 285"
   sodipodi:docname="logo.svg"
   inkscape:version="1.3 (0e150ed6c4, 2023-07-21)"
   xmlns:inkscape="http://www.inkscape.org/namespaces/inkscape"
   xmlns:sodipodi="http://sodipodi.sourceforge.net/DTD/sodipodi-0.dtd"
   xmlns="http://www.w3.org/2000/svg"
   xmlns:svg="http://www.w3.org/2000/svg">
  <defs
     id="defs1" />
  <sodipodi:namedview
     id="namedview1"
     pagecolor="#505050"
     bordercolor="#eeeeee"
     borderopacity="1"
     inkscape:showpageshadow="0"
     inkscape:pageopacity="0"
     inkscape:pagecheckerboard="0"
     inkscape:deskcolor="#505050"
     inkscape:zoom="5.6568543"
     inkscape:cx="110.30866"
     inkscape:cy="143.01235"
     inkscape:window-width="2560"
     inkscape:window-height="1566"
     inkscape:window-x="-11"
     inkscape:window-y="1609"
     inkscape:window-maximized="1"
     inkscape:current-layer="layer1" />
  <g
     inkscape:groupmode="layer"
     inkscape:label="Image"
     id="g1">
    <g
       inkscape:groupmode="layer"
       id="layer1"
       inkscape:label="vector"
       style="display:inline">
      <g
         id="g17"
         style="stroke:none">
        <rect
           style="fill:#000000;stroke:none"
           id="rect1"
           width="154.10782"
           height="26.974396"
           x="64.782776"
           y="101.92786"
           rx="13.284954"
           ry="12.271142" />
        <rect
           style="display:inline;fill:#000000;stroke:none"
           id="rect1-0"
           width="154.10782"
           height="26.974396"
           x="65.2211"
           y="154.20558"
           rx="13.284954"
           ry="12.271142" />
        <rect
           style="display:inline;fill:#000000;stroke:none"
           id="rect1-5"
           width="154.10782"
           height="26.974396"
           x="65"
           y="207.26997"
           rx="13.284954"
           ry="12.271142" />
        <ellipse
           style="fill:#000000;stroke:none"
           id="path1"
           cx="113.86734"
           cy="65.667183"
           rx="17.688129"
           ry="17.467028" />
        <ellipse
           style="display:inline;fill:#000000;stroke:none"
           id="path1-1"
           cx="170.54228"
           cy="66.004654"
           rx="17.688129"
           ry="17.467028" />
        <path
           style="fill:#0f4e50;fill-opacity:1;stroke:none;stroke-width:0.25"
           d="m 76.125,128.61615 c -4.506654,-0.59835 -8.244775,-3.33694 -10.225286,-7.49115 -0.729017,-1.52915 -0.779788,-1.82659 -0.860738,-5.0426 -0.09453,-3.75571 0.192127,-5.29203 1.405892,-7.5347 0.858031,-1.58537 3.586877,-4.12539 5.353687,-4.98323 3.180287,-1.54412 -1.911029,-1.43947 70.030385,-1.43947 59.16056,0 65.87728,0.0396 67.25997,0.39605 4.60802,1.18808 8.46985,5.01861 9.37977,9.30375 0.15473,0.72865 0.27998,2.41615 0.27835,3.75 -0.005,4.18192 -0.92138,6.51495 -3.60511,9.17947 -1.91224,1.89856 -3.46775,2.85285 -5.78564,3.54944 -1.40281,0.42159 -4.93142,0.44693 -66.60628,0.47838 -35.81875,0.0183 -65.8,-0.0564 -66.625,-0.16594 z"
           id="path10" />
        <path
           style="fill:#0f4e50;fill-opacity:1;stroke:none;stroke-width:0.25"
           d="m 75.687833,180.74397 c -2.553934,-0.5106 -4.805492,-1.72217 -6.710002,-3.61066 -2.148421,-2.13035 -3.158398,-4.19651 -3.543782,-7.2497 -0.888876,-7.0421 2.298161,-12.53298 8.594308,-14.80695 L 75.625,154.5 h 66.75 66.75 l 1.65585,0.66438 c 4.4318,1.77819 7.32891,5.01744 8.19288,9.16042 0.34603,1.65932 0.35613,4.81083 0.0211,6.57749 -0.80496,4.24454 -4.25814,8.01907 -8.72679,9.5389 L 208.625,181 143,181.04064 c -54.197474,0.0336 -65.918793,-0.0181 -67.312167,-0.29667 z"
           id="path11" />
        <path
           style="fill:#0f4e50;fill-opacity:1;stroke:none;stroke-width:0.25"
           d="m 74.79765,233.61875 c -4.346597,-1.13868 -7.61562,-4.0699 -9.076896,-8.13893 -0.764182,-2.12793 -0.761604,-7.30671 0.0047,-9.45964 0.710525,-1.9962 1.809299,-3.64869 3.377536,-5.07962 1.706178,-1.55679 3.415424,-2.46285 5.793361,-3.07102 1.902432,-0.48656 2.984441,-0.49447 67.081129,-0.4902 55.56743,0.004 65.39593,0.057 66.83683,0.36232 4.85948,1.02977 8.95545,4.99054 9.91025,9.58314 0.35352,1.70043 0.35352,5.14997 0,6.85039 -0.9548,4.59261 -5.05077,8.55337 -9.91025,9.58314 -1.44192,0.30556 -11.24537,0.35661 -66.93932,0.34856 -63.463759,-0.009 -65.300023,-0.0225 -67.077349,-0.48814 z"
           id="path12" />
        <path
           style="fill:#0f4e50;fill-opacity:1;stroke:none;stroke-width:0.25"
           d="m 111.79822,82.857 c -7.25213,-0.942055 -13.104835,-6.020443 -14.961413,-12.982 -0.583541,-2.188086 -0.576206,-6.322659 0.01508,-8.5 0.702513,-2.586924 2.310076,-5.405425 4.244923,-7.442523 3.29998,-3.474366 7.20302,-5.273641 11.90319,-5.487289 3.41436,-0.1552 5.65205,0.313672 8.75,1.833419 4.43484,2.175582 7.89555,6.456945 9.17151,11.346393 0.55774,2.137263 0.54616,6.090508 -0.0241,8.218104 -1.63912,6.115666 -6.5289,11.016648 -12.48655,12.515166 -2.3055,0.5799 -4.63519,0.755605 -6.61266,0.49873 z"
           id="path13" />
        <path
           style="fill:#0f4e50;fill-opacity:1;stroke:none;stroke-width:0.25;stroke-opacity:1"
           d="m 167.69085,83.133862 c -3.35251,-0.612817 -6.51144,-2.186975 -8.99223,-4.480992 -2.29291,-2.120288 -3.92622,-4.626535 -4.84807,-7.439156 C 153.21311,69.268825 153.125,68.635691 153.125,66 c 0,-2.635691 0.0881,-3.268826 0.72555,-5.213714 1.78481,-5.445585 6.18499,-9.677824 11.89945,-11.445285 2.399,-0.742004 6.75332,-0.798892 9.22835,-0.120566 C 182.69788,51.336104 188,58.168362 188,66 c 0,7.786455 -5.32746,14.701712 -12.89175,16.734022 -1.79392,0.481975 -5.78972,0.69737 -7.4174,0.39984 z"
           id="path14" />
      </g>
    </g>
  </g>
</svg>
